<?xml version="1.0" encoding="utf-8"?>
<?xml-stylesheet type="text/xsl" href="rss1.xsl"?>
<rss version="2.0" xmlns:atom="http://www.w3.org/2005/Atom" xmlns:content="http://purl.org/rss/1.0/modules/content/" xmlns:dc="http://purl.org/dc/elements/1.1/" xmlns:media="http://search.yahoo.com/mrss/">
<channel>
 <title>Getty</title>
 <link>http://www.gettyimg.com/</link>
 <atom:link href="http://www.gettyimg.com/" rel="self" type="application/rss+xml" />

 
                <item>
                <title><![CDATA[【Apple Music】WEB-RiP - Dua Lipa - Illusion [Apple HD Music Video]]]></title>
                <link><![CDATA[https://sharemania.us/threads/dua-lipa-illusion-apple-hd-music-video.242000/]]></link>
                <description><![CDATA[<article>
<blockquote class="messageText SelectQuoteContainer ugc baseHtml">
<span style="font-size: 22px"><b>Dua Lipa - Illusion [Apple HD Music Video]</b></span><br>
<br>
<img src="https://imgur.com/IKs6k40.jpg" class="bbCodeImage LbImage" alt="[​IMG]" data-url="https://imgur.com/IKs6k40.jpg" style=""><br>
<br>
<div class="bbCodeBlock bbCodeCode">
<div class="type">Code:</div>
<pre>General
Format                         : MPEG-4
Codec ID                       : M4V  (isom/iso4/M4V /mp42)
File size                      : 226 MiB
Duration                       : 3 min 8 s
Overall bit rate mode          : Variable
Overall bit rate               : 10.1 Mb/s
Movie name                     : Illusion
Performer                      : Dua Lipa
Genre                          : Pop
ContentType                    : Music Video
Recorded date                  : UTC 2024-04-11 07:00:00
Encoded date                   : UTC 2024-04-11 22:59:41
Tagged date                    : UTC 2024-04-11 22:59:41
Copyright                      : ℗ Under exclusive license to Warner Records UK, a division of Warner Music UK Limited, © 2024 Radical22 Limited
Cover                          : Yes
Rating                         : None
GenreID                        : 1614
AppleStoreCountry              : United Kingdom
AlbumTitleID                   : 1031397873
AppleStoreCatalogID            : 1740725244

Video
ID                             : 2
Format                         : AVC
Format/Info                    : Advanced Video Codec
Format profile                 : High@L4
Format settings                : CABAC / 4 Ref Frames
Format settings, CABAC         : Yes
Format settings, Reference fra : 4 frames
Codec ID                       : avc1
Codec ID/Info                  : Advanced Video Coding
Duration                       : 3 min 8 s
Bit rate                       : 9 780 kb/s
Maximum bit rate               : 18.1 Mb/s
Width                          : 1 570 pixels
Height                         : 1 080 pixels
Display aspect ratio           : 3:2
Frame rate mode                : Constant
Frame rate                     : 23.976 (24000/1001) FPS
Color space                    : YUV
Chroma subsampling             : 4:2:0
Bit depth                      : 8 bits
Scan type                      : Progressive
Bits/(Pixel*Frame)             : 0.241
Stream size                    : 220 MiB (97%)
Title                          : Core Media Video
Encoded date                   : UTC 2024-04-11 13:17:58
Tagged date                    : UTC 2024-04-11 22:59:55
Color range                    : Limited
Color primaries                : BT.709
Transfer characteristics       : BT.709
Matrix coefficients            : BT.709
Codec configuration box        : avcC

Audio
ID                             : 1
Format                         : AAC LC
Format/Info                    : Advanced Audio Codec Low Complexity
Codec ID                       : mp4a-40-2
Duration                       : 3 min 8 s
Duration_LastFrame             : -6 ms
Bit rate mode                  : Variable
Bit rate                       : 265 kb/s
Maximum bit rate               : 324 kb/s
Channel(s)                     : 2 channels
Channel layout                 : L R
Sampling rate                  : 48.0 kHz
Frame rate                     : 46.875 FPS (1024 SPF)
Compression mode               : Lossy
Stream size                    : 5.87 MiB (3%)
Title                          : Core Media Audio
Encoded date                   : UTC 2024-04-11 13:16:56
Tagged date                    : UTC 2024-04-11 22:59:55
</pre>
</div>
<div class="bbCodeBlock bbCodeVfcHH HiddenContent">
<div class="attribution type">Hidden Content:</div>
<blockquote>You must reply before you can see the hidden data contained here.</blockquote>
</div>
<div class="messageTextEndMarker">&nbsp;</div>
</blockquote>
</article>]]></description>
                <author><![CDATA[abby0511]]></author>
                </item>

                
                <item>
                <title><![CDATA[【Requests】[REQ AUD] - RuPaul - Various songs in FLAC]]></title>
                <link><![CDATA[https://sharemania.us/threads/rupaul-various-songs-in-flac.241999/]]></link>
                <description><![CDATA[<article>
<blockquote class="messageText SelectQuoteContainer ugc baseHtml">
I'm looking for these songs in FLAC/lossless:<br>
<br>
<span style="font-size: 15px">Queens Everywhere (Cast Version) [feat. The Cast of RuPaul's Drag Race, Season 11] - Single<br>
<span style="font-size: 15px">Super Queen (feat. The Cast of RuPaul's Drag Race: All Stars, Season 4) [Cast Version] - Single<br>
<br>
For some reason I can't seem to be able to access them on Qobuz.</span></span>
<div class="messageTextEndMarker">&nbsp;</div>
</blockquote>
</article>]]></description>
                <author><![CDATA[MusicFanatic94]]></author>
                </item>

                </channel></rss>